HIERARCHY
ROOT Hip
{
    OFFSET 0.0 0.0 0.0
    CHANNELS 6 Xposition Yposition Zposition Zrotation Xrotation Yrotation
    JOINT RightHip
    {
        OFFSET -6.702904723477252 0.0 0.0
        CHANNELS 3 Zrotation Xrotation Yrotation
        JOINT RightKnee
        {
            OFFSET 0.0 0.0 -23.135301391752574
            CHANNELS 3 Zrotation Xrotation Yrotation
            JOINT RightAnkle
            {
                OFFSET 0.0 0.0 -29.366199440065486
                CHANNELS 3 Zrotation Xrotation Yrotation
                End Site
                {
                    OFFSET 0.0 -11.746479776026193 0.0
                }
            }
        }
    }
    JOINT LeftHip
    {
        OFFSET 6.702904723477252 0.0 0.0
        CHANNELS 3 Zrotation Xrotation Yrotation
        JOINT LeftKnee
        {
            OFFSET 0.0 0.0 -23.135301391752574
            CHANNELS 3 Zrotation Xrotation Yrotation
            JOINT LeftAnkle
            {
                OFFSET 0.0 0.0 -29.366199440065486
                CHANNELS 3 Zrotation Xrotation Yrotation
                End Site
                {
                    OFFSET 0.0 -11.746479776026193 0.0
                }
            }
        }
    }
    JOINT Spine
    {
        OFFSET 0.0 0.0 19.309447244747407
        CHANNELS 3 Zrotation Xrotation Yrotation
        JOINT Thorax
        {
            OFFSET 0.0 0.0 22.139154035956384
            CHANNELS 3 Zrotation Xrotation Yrotation
            JOINT Neck
            {
                OFFSET 0.0 0.0 2.8101344150050207
                CHANNELS 3 Zrotation Xrotation Yrotation
                JOINT Head
                {
                    OFFSET 0.0 0.0 8.344830796704294
                    CHANNELS 3 Zrotation Xrotation Yrotation
                    End Site
                    {
                        OFFSET -3.337932318681718 0.0 0.0
                    }
                }
            }
            JOINT LeftShoulder
            {
                OFFSET 12.158751895224091 0.0 0.0
                CHANNELS 3 Zrotation Xrotation Yrotation
                JOINT LeftElbow
                {
                    OFFSET 22.20874665359871 0.0 0.0
                    CHANNELS 3 Zrotation Xrotation Yrotation
                    JOINT LeftWrist
                    {
                        OFFSET 14.329589936787444 0.0 0.0
                        CHANNELS 3 Zrotation Xrotation Yrotation
                        End Site
                        {
                            OFFSET 5.731835974714977 0.0 0.0
                        }
                    }
                }
            }
            JOINT RightShoulder
            {
                OFFSET -12.158751895224091 0.0 0.0
                CHANNELS 3 Zrotation Xrotation Yrotation
                JOINT RightElbow
                {
                    OFFSET -22.20874665359871 0.0 0.0
                    CHANNELS 3 Zrotation Xrotation Yrotation
                    JOINT RightWrist
                    {
                        OFFSET -14.329589936787444 0.0 0.0
                        CHANNELS 3 Zrotation Xrotation Yrotation
                        End Site
                        {
                            OFFSET -5.731835974714977 0.0 0.0
                        }
                    }
                }
            }
            JOINT Nose
            {
                OFFSET 0.0 0.0 7.959572016232479
                CHANNELS 3 Zrotation Xrotation Yrotation
                End Site
                {
                    OFFSET -3.183828806492992 0.0 0.0
                }
            }
        }
    }
}
MOTION
Frames: 4
Frame Time: 0.03333333333333333
0.8928237780662731 45.83508418323285 6.600489353280742 -1.8660708621559527 -2.8685554243601334 6.29972250635306 -13.383115297700318 -13.239855581552252 4.7082837464826595 1.8240629411772626 27.142184836385887 -7.348610662065481 0.0 0.0 0.0 0.3695772903746073 -4.679105058134363 -4.002981505700957 -4.088010595771932 19.464304956778943 11.87917853217103 0.0 0.0 3.975693351829396e-16 4.992530398010316e-16 8.549792313956104 -1.3454828877107653e-15 4.9453217115560015 -0.010660413028707152 -0.5061286175941302 1.34371712604476 1.4756499720843501 -2.7466561033194377 0.0 0.0 0.0 -86.58861726075878 -77.58307048547412 -56.88354829852905 2.655030189582809e-15 1.893115729813389e-14 -49.82195952420671 0.0 0.0 0.0 82.93770265411781 40.55520118963919 -1.0580982131580121 -2.621392196862409e-15 1.801174903225216e-15 111.01360021130334 0.0 0.0 0.0 0.0 0.0 -2.981770013872047e-16
0.8951725502277849 45.934779821743504 6.579525078039265 -0.9334372749134796 -2.2424563794701036 6.673202244606047 -12.482947996826073 -15.986552747167616 6.521661964995446 1.1436123613478055 31.122279748793805 -9.170469984516394 0.0 0.0 0.0 1.5090830215952236 -3.94800362079431 -3.8802807879004395 -7.739782238472713 17.872860503247473 12.344666858613785 0.0 0.0 9.93923337957349e-17 -1.1983634292317214e-16 7.772906919866246 1.7639688619977253e-15 3.948593759696423 0.0013060458347747006 -0.564670656408303 1.3381937447396963 1.4180659693218076 -2.9545831095897324 0.0 0.0 0.0 -82.77081591500279 -77.2071673549011 -52.4701702574139 -4.787279051729917e-16 -1.0509676414207116e-14 -49.62312929646855 0.0 0.0 -1.5902773407317584e-15 79.13518426772008 41.18657397547946 -0.34739403992948903 -1.4117758248762921e-14 1.734204043668537e-15 112.86381014389325 -1.5902773407317584e-15 6.3611093629270335e-15 8.827812596100317e-32 0.0 0.0 9.93923337957349e-17
0.8974234368475146 46.030320624911326 6.559434493091683 1.0560814641647942 -1.7879618136903759 6.576509989328806 -10.700199602082046 -17.625603694979482 8.41978924545997 -1.6652515557556493 32.887087958096856 -10.44945511864531 0.0 0.0 0.0 1.9587187713250596 -4.3242412009795315 -3.8663388784157022 -10.141317477549375 17.727344230403705 13.56318536616202 0.0 0.0 -6.957463365701443e-16 -1.2538395453975893e-16 7.344904158011396 4.017664907794591e-16 1.8209692920891631 0.018837342822458854 -0.6673752186477286 1.2923598299995624 1.3722068880943488 -2.9562084084212765 0.0 0.0 0.0 -83.79673797179517 -77.09152116695283 -52.24750808422233 -1.1549917604108442e-14 -7.750259860310406e-15 -50.347450492727155 0.0 0.0 -1.5902773407317584e-15 74.94270977518035 43.20448861421718 0.6971609670302334 1.4947410648014673e-14 5.428914897482271e-15 113.6619423577506 1.5902773407317584e-15 0.0 0.0 0.0 0.0 -9.93923337957349e-17
0.9307804939721622 47.44618937683732 6.261701686876594 2.605914239102817 -1.3386547619580733 5.538309209832002 -9.358298564868958 -19.270171855561077 11.146661355223117 -1.5333940831060782 34.09091787048293 -13.59920928627319 0.0 0.0 -1.987846675914698e-16 3.474096865637974 -5.31929347431481 -4.569728673152845 -11.425799704013556 17.144952824975825 14.111181703892482 8.965747167914385e-33 1.5902773407317582e-15 -6.460501696722768e-16 -4.3516747400924064e-16 6.8407040175790526 6.172039147312114e-16 -0.5722129011062351 0.02040122343083822 -0.29958804056891386 0.9311218385472378 1.3187732689489553 -2.7046645368452205 0.0 0.0 0.0 -79.07547043693907 -77.4240931231813 -47.864814618047646 -7.943113126294126e-15 -5.721159255894998e-15 -50.13687971582498 0.0 0.0 0.0 72.53529516730501 43.40825613544304 0.8315239406854259 -5.2523969877015335e-15 3.5883196918198106e-15 111.31997543107276 0.0 0.0 0.0 0.0 0.0 -3.851452934584727e-16
